<svg width="20" height="20" viewBox="0 0 20 20" fill="none" xmlns="http://www.w3.org/2000/svg">
<path d="M3.61111 0C1.61674 0 0 1.61676 0 3.61111V16.3889C0 18.3832 1.61676 20 3.61111 20H16.3889C18.3832 20 20 18.3832 20 16.3889V3.61111C20 1.61674 18.3832 0 16.3889 0H3.61111ZM14.7558 7.53371L9.20022 13.089C8.87478 13.4144 8.34711 13.4144 8.02178 13.089L5.79529 10.8626C5.46986 10.5371 5.46986 10.0094 5.79529 9.68411C6.12072 9.35867 6.64837 9.35867 6.9738 9.68411L8.611 11.3212L13.5773 6.35518C13.9028 6.02974 14.4303 6.02976 14.7558 6.3552C15.0812 6.68064 15.0812 7.20829 14.7558 7.53371Z" fill="#FF823B"/>
<path fill-rule="evenodd" clip-rule="evenodd" d="M17 1H3C1.89543 1 1 1.89543 1 3V17C1 18.1046 1.89543 19 3 19H17C18.1046 19 19 18.1046 19 17V3C19 1.89543 18.1046 1 17 1ZM3 0C1.34315 0 0 1.34315 0 3V17C0 18.6569 1.34315 20 3 20H17C18.6569 20 20 18.6569 20 17V3C20 1.34315 18.6569 0 17 0H3Z" fill="#FF823B"/>
</svg>
