<svg width="29" height="28" viewBox="0 0 29 28" fill="none" xmlns="http://www.w3.org/2000/svg">
<g id="&#236;&#139;&#157;&#235;&#139;&#168;">
<g id="&#235;&#161;&#156;&#234;&#179;&#160; &#236;&#152;&#136;&#236;&#139;&#156;">
<path id="Vector" d="M24.9977 6.65516C24.9977 3.46308 22.9422 0.875 20.4056 0.875C17.869 0.875 15.8135 3.46308 15.8135 6.65516C15.8135 9.45115 17.3912 11.7847 19.4872 12.3188V15.6328C18.6935 15.8568 18.1104 16.6132 18.1104 17.5165V25.1732C18.1104 26.2504 18.9429 27.125 19.9715 27.125H20.843C21.8699 27.125 22.7041 26.2504 22.7041 25.1732V17.5165C22.7041 16.615 22.1194 15.8568 21.3273 15.6328V12.3188C23.4233 11.7829 25.001 9.45115 25.001 6.65516H24.9977Z" fill="#DEDEDE"/>
<path id="Vector_2" d="M11.4432 1.07994C11.143 0.953411 10.8081 1.16548 10.8081 1.48269V6.11253C10.8081 6.6418 10.3672 7.07128 9.82403 7.07128C9.28082 7.07128 8.84 6.6418 8.84 6.11253V1.31517C8.84 1.07281 8.63695 0.875 8.38703 0.875H7.69978C7.44986 0.875 7.24681 1.07281 7.24681 1.31517V6.07154C7.24681 6.5723 6.87194 7.01782 6.35997 7.06594C5.77337 7.12118 5.27875 6.6721 5.27875 6.11253V1.48447C5.27875 1.16548 4.9438 0.953411 4.64356 1.08172C3.75152 1.45774 3.125 2.32383 3.125 3.33427V7.736C3.125 10.0224 4.82405 11.9203 7.06111 12.2999V15.6983C6.21072 15.9211 5.58594 16.6731 5.58594 17.5713V25.1843C5.58594 26.2553 6.47798 27.125 7.58003 27.125H8.51372C9.61403 27.125 10.5078 26.2553 10.5078 25.1843V17.5713C10.5078 16.6749 9.8813 15.9211 9.03264 15.6983V12.2999C11.268 11.9185 12.9688 10.0206 12.9688 7.736V3.33427C12.9688 2.32383 12.3422 1.45952 11.4485 1.08172L11.4432 1.07994Z" fill="#DEDEDE"/>
</g>
</g>
</svg>
