<svg width="29" height="28" viewBox="0 0 29 28" fill="none" xmlns="http://www.w3.org/2000/svg">
<g id="&#236;&#164;&#145;&#234;&#179;&#160;&#234;&#177;&#176;&#235;&#158;&#152;">
<path id="Vector" d="M17.2231 3.30566C17.0369 1.93299 15.8602 0.875 14.4365 0.875H10.0618C8.6381 0.875 7.46147 1.93299 7.27525 3.30566L7.25708 3.47478L7.26682 3.37409L5.06226 3.37479C3.50909 3.37479 2.25 4.63388 2.25 6.18705V23.0606C2.25 24.6138 3.50909 25.8729 5.06226 25.8729H11.001C10.992 25.6323 11.0166 25.3839 11.0795 25.1323L11.6516 22.8442C11.7712 22.3656 11.9664 21.9115 12.2279 21.4983H7.24958C6.73186 21.4983 6.31216 21.0786 6.31216 20.5608C6.31216 20.0431 6.73186 19.6234 7.24958 19.6234H13.944L20.2406 13.327C20.8131 12.7544 21.5125 12.3863 22.2483 12.2225V6.18705C22.2483 4.63388 20.9892 3.37479 19.4361 3.37479L17.2315 3.37409L17.24 3.47478L17.2231 3.30566ZM10.0618 2.74984H14.4365C14.9542 2.74984 15.3739 3.16954 15.3739 3.68726C15.3739 4.20498 14.9542 4.62468 14.4365 4.62468H10.0618C9.54412 4.62468 9.12442 4.20498 9.12442 3.68726C9.12442 3.16954 9.54412 2.74984 10.0618 2.74984ZM7.24958 14.6238H12.2492C12.7669 14.6238 13.1866 15.0436 13.1866 15.5613C13.1866 16.079 12.7669 16.4987 12.2492 16.4987H7.24958C6.73186 16.4987 6.31216 16.079 6.31216 15.5613C6.31216 15.0436 6.73186 14.6238 7.24958 14.6238ZM7.24958 9.62426H17.2487C17.7664 9.62426 18.1862 10.044 18.1862 10.5617C18.1862 11.0794 17.7664 11.4991 17.2487 11.4991H7.24958C6.73186 11.4991 6.31216 11.0794 6.31216 10.5617C6.31216 10.044 6.73186 9.62426 7.24958 9.62426ZM21.1233 14.2108L13.7458 21.5881C13.3157 22.0182 13.0106 22.5572 12.863 23.1474L12.2909 25.4356C12.0422 26.4306 12.9436 27.332 13.9386 27.0832L16.2268 26.5111C16.8169 26.3636 17.3559 26.0585 17.7861 25.6283L25.1635 18.2509C26.2791 17.1353 26.2791 15.3264 25.1635 14.2108C24.0478 13.095 22.2389 13.095 21.1233 14.2108Z" fill="#DEDEDE"/>
</g>
</svg>
